<svg width="416" height="284" viewBox="0 0 416 284" fill="none" xmlns="http://www.w3.org/2000/svg">
<path d="M0 45H416V264C416 275.046 407.046 284 396 284H20C8.95431 284 0 275.046 0 264V45Z" fill="#505050"/>
<path d="M231.333 135H184.667C180.985 135 178 137.985 178 141.667V188.333C178 192.015 180.985 195 184.667 195H231.333C235.015 195 238 192.015 238 188.333V141.667C238 137.985 235.015 135 231.333 135Z" stroke="#5E7EF3" stroke-width="4" stroke-linecap="round" stroke-linejoin="round"/>
<path d="M198 161.667C201.682 161.667 204.667 158.682 204.667 155C204.667 151.318 201.682 148.333 198 148.333C194.318 148.333 191.333 151.318 191.333 155C191.333 158.682 194.318 161.667 198 161.667Z" stroke="#5E7EF3" stroke-width="4" stroke-linecap="round" stroke-linejoin="round"/>
<path d="M238 175L227.713 164.713C226.463 163.464 224.768 162.761 223 162.761C221.232 162.761 219.537 163.464 218.287 164.713L188 195" stroke="#5E7EF3" stroke-width="4" stroke-linecap="round" stroke-linejoin="round"/>
<path d="M0 20C0 8.9543 8.95431 0 20 0H396C407.046 0 416 8.95431 416 20V45H0V20Z" fill="#939393"/>
<circle cx="28.5" cy="22.5" r="4.5" fill="#D9D9D9"/>
<circle cx="44.5" cy="22.5" r="4.5" fill="#D9D9D9"/>
<circle cx="60.5" cy="22.5" r="4.5" fill="#D9D9D9"/>
</svg>
