<svg width="424" height="292" viewBox="0 0 424 292" fill="none" xmlns="http://www.w3.org/2000/svg">
<g filter="url(#filter0_d_19_30)">
<path d="M4 45H420V264C420 275.046 411.046 284 400 284H24C12.9543 284 4 275.046 4 264V45Z" fill="#505050"/>
<path d="M44 58H30C28.8954 58 28 58.8954 28 60V74C28 75.1046 28.8954 76 30 76H44C45.1046 76 46 75.1046 46 74V60C46 58.8954 45.1046 58 44 58Z" stroke="#5E7EF3" stroke-width="2" stroke-linecap="round" stroke-linejoin="round"/>
<path d="M34 66C35.1046 66 36 65.1046 36 64C36 62.8954 35.1046 62 34 62C32.8954 62 32 62.8954 32 64C32 65.1046 32.8954 66 34 66Z" stroke="#5E7EF3" stroke-width="2" stroke-linecap="round" stroke-linejoin="round"/>
<path d="M46 70L42.914 66.914C42.5389 66.5391 42.0303 66.3284 41.5 66.3284C40.9697 66.3284 40.4611 66.5391 40.086 66.914L31 76" stroke="#5E7EF3" stroke-width="2" stroke-linecap="round" stroke-linejoin="round"/>
<path d="M56.128 71V62.6H59.584C60.328 62.6 60.964 62.72 61.492 62.96C62.028 63.2 62.44 63.544 62.728 63.992C63.016 64.44 63.16 64.972 63.16 65.588C63.16 66.204 63.016 66.736 62.728 67.184C62.44 67.632 62.028 67.976 61.492 68.216C60.964 68.456 60.328 68.576 59.584 68.576H56.992L57.688 67.844V71H56.128ZM57.688 68.012L56.992 67.256H59.512C60.2 67.256 60.716 67.112 61.06 66.824C61.412 66.528 61.588 66.116 61.588 65.588C61.588 65.052 61.412 64.64 61.06 64.352C60.716 64.064 60.2 63.92 59.512 63.92H56.992L57.688 63.152V68.012ZM64.691 71V62.096H66.191V71H64.691ZM72.1078 71V69.704L72.0238 69.428V67.16C72.0238 66.72 71.8918 66.38 71.6278 66.14C71.3638 65.892 70.9638 65.768 70.4278 65.768C70.0678 65.768 69.7118 65.824 69.3598 65.936C69.0158 66.048 68.7238 66.204 68.4838 66.404L67.8958 65.312C68.2398 65.048 68.6478 64.852 69.1198 64.724C69.5998 64.588 70.0958 64.52 70.6078 64.52C71.5358 64.52 72.2518 64.744 72.7558 65.192C73.2678 65.632 73.5238 66.316 73.5238 67.244V71H72.1078ZM70.0918 71.084C69.6118 71.084 69.1918 71.004 68.8318 70.844C68.4718 70.676 68.1918 70.448 67.9918 70.16C67.7998 69.864 67.7038 69.532 67.7038 69.164C67.7038 68.804 67.7878 68.48 67.9558 68.192C68.1318 67.904 68.4158 67.676 68.8078 67.508C69.1998 67.34 69.7198 67.256 70.3678 67.256H72.2278V68.252H70.4758C69.9638 68.252 69.6198 68.336 69.4438 68.504C69.2678 68.664 69.1798 68.864 69.1798 69.104C69.1798 69.376 69.2878 69.592 69.5038 69.752C69.7198 69.912 70.0198 69.992 70.4038 69.992C70.7718 69.992 71.0998 69.908 71.3878 69.74C71.6838 69.572 71.8958 69.324 72.0238 68.996L72.2758 69.896C72.1318 70.272 71.8718 70.564 71.4958 70.772C71.1278 70.98 70.6598 71.084 70.0918 71.084ZM77.8608 71.084C77.1568 71.084 76.6128 70.904 76.2288 70.544C75.8448 70.176 75.6528 69.636 75.6528 68.924V63.176H77.1528V68.888C77.1528 69.192 77.2288 69.428 77.3808 69.596C77.5408 69.764 77.7608 69.848 78.0408 69.848C78.3768 69.848 78.6568 69.76 78.8808 69.584L79.3008 70.652C79.1248 70.796 78.9088 70.904 78.6528 70.976C78.3968 71.048 78.1328 71.084 77.8608 71.084ZM74.5968 65.84V64.64H78.8688V65.84H74.5968ZM80.7388 71V64.232C80.7388 63.56 80.9348 63.024 81.3268 62.624C81.7268 62.216 82.2948 62.012 83.0308 62.012C83.2948 62.012 83.5428 62.04 83.7748 62.096C84.0148 62.152 84.2148 62.24 84.3748 62.36L83.9668 63.488C83.8548 63.4 83.7268 63.336 83.5828 63.296C83.4388 63.248 83.2908 63.224 83.1388 63.224C82.8268 63.224 82.5908 63.312 82.4308 63.488C82.2708 63.656 82.1908 63.912 82.1908 64.256V64.976L82.2388 65.648V71H80.7388ZM79.6828 65.84V64.64H83.9548V65.84H79.6828ZM87.7507 71.084C87.0947 71.084 86.5107 70.944 85.9987 70.664C85.4867 70.376 85.0827 69.984 84.7867 69.488C84.4907 68.992 84.3427 68.428 84.3427 67.796C84.3427 67.156 84.4907 66.592 84.7867 66.104C85.0827 65.608 85.4867 65.22 85.9987 64.94C86.5107 64.66 87.0947 64.52 87.7507 64.52C88.4147 64.52 89.0027 64.66 89.5147 64.94C90.0347 65.22 90.4387 65.604 90.7267 66.092C91.0227 66.58 91.1707 67.148 91.1707 67.796C91.1707 68.428 91.0227 68.992 90.7267 69.488C90.4387 69.984 90.0347 70.376 89.5147 70.664C89.0027 70.944 88.4147 71.084 87.7507 71.084ZM87.7507 69.8C88.1187 69.8 88.4467 69.72 88.7347 69.56C89.0227 69.4 89.2467 69.168 89.4067 68.864C89.5747 68.56 89.6587 68.204 89.6587 67.796C89.6587 67.38 89.5747 67.024 89.4067 66.728C89.2467 66.424 89.0227 66.192 88.7347 66.032C88.4467 65.872 88.1227 65.792 87.7627 65.792C87.3947 65.792 87.0667 65.872 86.7787 66.032C86.4987 66.192 86.2747 66.424 86.1067 66.728C85.9387 67.024 85.8547 67.38 85.8547 67.796C85.8547 68.204 85.9387 68.56 86.1067 68.864C86.2747 69.168 86.4987 69.4 86.7787 69.56C87.0667 69.72 87.3907 69.8 87.7507 69.8ZM92.6051 71V64.592H94.0331V66.356L93.8651 65.84C94.0571 65.408 94.3571 65.08 94.7651 64.856C95.1811 64.632 95.6971 64.52 96.3131 64.52V65.948C96.2491 65.932 96.1891 65.924 96.1331 65.924C96.0771 65.916 96.0211 65.912 95.9651 65.912C95.3971 65.912 94.9451 66.08 94.6091 66.416C94.2731 66.744 94.1051 67.236 94.1051 67.892V71H92.6051ZM105.674 64.52C106.186 64.52 106.638 64.62 107.03 64.82C107.43 65.02 107.742 65.328 107.966 65.744C108.19 66.152 108.302 66.68 108.302 67.328V71H106.802V67.52C106.802 66.952 106.678 66.528 106.43 66.248C106.182 65.968 105.826 65.828 105.362 65.828C105.034 65.828 104.742 65.9 104.486 66.044C104.238 66.188 104.042 66.4 103.898 66.68C103.762 66.96 103.694 67.316 103.694 67.748V71H102.194V67.52C102.194 66.952 102.07 66.528 101.822 66.248C101.574 65.968 101.218 65.828 100.754 65.828C100.426 65.828 100.134 65.9 99.8776 66.044C99.6296 66.188 99.4336 66.4 99.2896 66.68C99.1536 66.96 99.0856 67.316 99.0856 67.748V71H97.5856V64.592H99.0136V66.296L98.7616 65.792C98.9776 65.376 99.2896 65.06 99.6976 64.844C100.114 64.628 100.586 64.52 101.114 64.52C101.714 64.52 102.234 64.668 102.674 64.964C103.122 65.26 103.418 65.708 103.562 66.308L102.974 66.104C103.182 65.624 103.526 65.24 104.006 64.952C104.486 64.664 105.042 64.52 105.674 64.52Z" fill="white"/>
<rect x="337" y="239" width="67" height="35" rx="17.5" fill="#D55EF3"/>
<rect x="112" y="99" width="101" height="70" rx="20" fill="#5E7EF3"/>
<rect x="126" y="177" width="98" height="44" rx="20" fill="#818080"/>
<rect x="218" y="115" width="82" height="54" rx="20" fill="#818080"/>
<rect x="230" y="177" width="82" height="54" rx="20" fill="#818080"/>
<path d="M4 20C4 8.9543 12.9543 0 24 0H400C411.046 0 420 8.95431 420 20V45H4V20Z" fill="#939393"/>
<circle cx="32.5" cy="22.5" r="4.5" fill="#D9D9D9"/>
<circle cx="48.5" cy="22.5" r="4.5" fill="#D9D9D9"/>
<circle cx="64.5" cy="22.5" r="4.5" fill="#D9D9D9"/>
</g>
<defs>
<filter id="filter0_d_19_30" x="0" y="0" width="424" height="292" filterUnits="userSpaceOnUse" color-interpolation-filters="sRGB">
<feFlood flood-opacity="0" result="BackgroundImageFix"/>
<feColorMatrix in="SourceAlpha" type="matrix" values="0 0 0 0 0 0 0 0 0 0 0 0 0 0 0 0 0 0 127 0" result="hardAlpha"/>
<feOffset dy="4"/>
<feGaussianBlur stdDeviation="2"/>
<feComposite in2="hardAlpha" operator="out"/>
<feColorMatrix type="matrix" values="0 0 0 0 0 0 0 0 0 0 0 0 0 0 0 0 0 0 0.25 0"/>
<feBlend mode="normal" in2="BackgroundImageFix" result="effect1_dropShadow_19_30"/>
<feBlend mode="normal" in="SourceGraphic" in2="effect1_dropShadow_19_30" result="shape"/>
</filter>
</defs>
</svg>
