<svg width="424" height="292" viewBox="0 0 424 292" fill="none" xmlns="http://www.w3.org/2000/svg">
<g filter="url(#filter0_d_13_92)">
<path d="M4 45H420V264C420 275.046 411.046 284 400 284H24C12.9543 284 4 275.046 4 264V45Z" fill="url(#paint0_linear_13_92)" fill-opacity="0.5"/>
<rect x="86" y="113" width="251" height="29" rx="14.5" fill="#8E8E8E"/>
<rect x="121" y="152" width="182" height="29" rx="14.5" fill="#818080"/>
<rect x="178" y="191" width="67" height="29" rx="14.5" fill="#F35E60"/>
<path d="M4 20C4 8.9543 12.9543 0 24 0H400C411.046 0 420 8.95431 420 20V45H4V20Z" fill="url(#paint1_linear_13_92)" fill-opacity="0.81"/>
<circle cx="32.5" cy="22.5" r="4.5" fill="#D9D9D9"/>
<circle cx="48.5" cy="22.5" r="4.5" fill="#D9D9D9"/>
<circle cx="64.5" cy="22.5" r="4.5" fill="#D9D9D9"/>
</g>
<defs>
<filter id="filter0_d_13_92" x="0" y="0" width="424" height="292" filterUnits="userSpaceOnUse" color-interpolation-filters="sRGB">
<feFlood flood-opacity="0" result="BackgroundImageFix"/>
<feColorMatrix in="SourceAlpha" type="matrix" values="0 0 0 0 0 0 0 0 0 0 0 0 0 0 0 0 0 0 127 0" result="hardAlpha"/>
<feOffset dy="4"/>
<feGaussianBlur stdDeviation="2"/>
<feComposite in2="hardAlpha" operator="out"/>
<feColorMatrix type="matrix" values="0 0 0 0 0 0 0 0 0 0 0 0 0 0 0 0 0 0 0.25 0"/>
<feBlend mode="normal" in2="BackgroundImageFix" result="effect1_dropShadow_13_92"/>
<feBlend mode="normal" in="SourceGraphic" in2="effect1_dropShadow_13_92" result="shape"/>
</filter>
<linearGradient id="paint0_linear_13_92" x1="13.5" y1="284" x2="413.5" y2="3.5" gradientUnits="userSpaceOnUse">
<stop stop-color="#686868"/>
<stop offset="1" stop-color="#7F7F7F"/>
</linearGradient>
<linearGradient id="paint1_linear_13_92" x1="4" y1="22.5" x2="420" y2="22.5" gradientUnits="userSpaceOnUse">
<stop stop-color="#8E8E8E"/>
<stop offset="1" stop-color="#929292"/>
</linearGradient>
</defs>
</svg>
