<svg width="1288" height="892" viewBox="0 0 1288 892" fill="none" xmlns="http://www.w3.org/2000/svg">
<g filter="url(#filter0_d_13_103)">
<path d="M4 45H420V264C420 275.046 411.046 284 400 284H24C12.9543 284 4 275.046 4 264V45Z" fill="url(#paint0_linear_13_103)" fill-opacity="0.5"/>
<rect x="86" y="113" width="251" height="29" rx="14.5" fill="#8E8E8E"/>
<rect x="121" y="152" width="182" height="29" rx="14.5" fill="#818080"/>
<rect x="178" y="191" width="67" height="29" rx="14.5" fill="#5E7EF3"/>
<path d="M4 20C4 8.9543 12.9543 0 24 0H400C411.046 0 420 8.95431 420 20V45H4V20Z" fill="url(#paint1_linear_13_103)" fill-opacity="0.81"/>
<circle cx="32.5" cy="22.5" r="4.5" fill="#D9D9D9"/>
<circle cx="48.5" cy="22.5" r="4.5" fill="#D9D9D9"/>
<circle cx="64.5" cy="22.5" r="4.5" fill="#D9D9D9"/>
</g>
<g filter="url(#filter1_d_13_103)">
<path d="M4 345H420V564C420 575.046 411.046 584 400 584H24C12.9543 584 4 575.046 4 564V345Z" fill="url(#paint2_linear_13_103)" fill-opacity="0.5"/>
<rect x="86" y="413" width="251" height="29" rx="14.5" fill="#8E8E8E"/>
<rect x="121" y="452" width="182" height="29" rx="14.5" fill="#818080"/>
<rect x="178" y="491" width="67" height="29" rx="14.5" fill="#5E7EF3"/>
<path d="M4 320C4 308.954 12.9543 300 24 300H400C411.046 300 420 308.954 420 320V345H4V320Z" fill="url(#paint3_linear_13_103)" fill-opacity="0.81"/>
<circle cx="32.5" cy="322.5" r="4.5" fill="#D9D9D9"/>
<circle cx="48.5" cy="322.5" r="4.5" fill="#D9D9D9"/>
<circle cx="64.5" cy="322.5" r="4.5" fill="#D9D9D9"/>
</g>
<g filter="url(#filter2_d_13_103)">
<path d="M4 645H420V864C420 875.046 411.046 884 400 884H24C12.9543 884 4 875.046 4 864V645Z" fill="url(#paint4_linear_13_103)" fill-opacity="0.5"/>
<rect x="86" y="713" width="251" height="29" rx="14.5" fill="#8E8E8E"/>
<rect x="121" y="752" width="182" height="29" rx="14.5" fill="#818080"/>
<rect x="178" y="791" width="67" height="29" rx="14.5" fill="#5E7EF3"/>
<path d="M4 620C4 608.954 12.9543 600 24 600H400C411.046 600 420 608.954 420 620V645H4V620Z" fill="url(#paint5_linear_13_103)" fill-opacity="0.81"/>
<circle cx="32.5" cy="622.5" r="4.5" fill="#D9D9D9"/>
<circle cx="48.5" cy="622.5" r="4.5" fill="#D9D9D9"/>
<circle cx="64.5" cy="622.5" r="4.5" fill="#D9D9D9"/>
</g>
<g filter="url(#filter3_d_13_103)">
<path d="M436 45H852V264C852 275.046 843.046 284 832 284H456C444.954 284 436 275.046 436 264V45Z" fill="url(#paint6_linear_13_103)" fill-opacity="0.5"/>
<rect x="518" y="113" width="251" height="29" rx="14.5" fill="#8E8E8E"/>
<rect x="553" y="152" width="182" height="29" rx="14.5" fill="#818080"/>
<rect x="610" y="191" width="67" height="29" rx="14.5" fill="#5E7EF3"/>
<path d="M436 20C436 8.9543 444.954 0 456 0H832C843.046 0 852 8.95431 852 20V45H436V20Z" fill="url(#paint7_linear_13_103)" fill-opacity="0.81"/>
<circle cx="464.5" cy="22.5" r="4.5" fill="#D9D9D9"/>
<circle cx="480.5" cy="22.5" r="4.5" fill="#D9D9D9"/>
<circle cx="496.5" cy="22.5" r="4.5" fill="#D9D9D9"/>
</g>
<g filter="url(#filter4_d_13_103)">
<path d="M436 345H852V564C852 575.046 843.046 584 832 584H456C444.954 584 436 575.046 436 564V345Z" fill="url(#paint8_linear_13_103)" fill-opacity="0.5"/>
<rect x="518" y="413" width="251" height="29" rx="14.5" fill="#8E8E8E"/>
<rect x="553" y="452" width="182" height="29" rx="14.5" fill="#818080"/>
<rect x="610" y="491" width="67" height="29" rx="14.5" fill="#5E7EF3"/>
<path d="M436 320C436 308.954 444.954 300 456 300H832C843.046 300 852 308.954 852 320V345H436V320Z" fill="url(#paint9_linear_13_103)" fill-opacity="0.81"/>
<circle cx="464.5" cy="322.5" r="4.5" fill="#D9D9D9"/>
<circle cx="480.5" cy="322.5" r="4.5" fill="#D9D9D9"/>
<circle cx="496.5" cy="322.5" r="4.5" fill="#D9D9D9"/>
</g>
<g filter="url(#filter5_d_13_103)">
<path d="M436 645H852V864C852 875.046 843.046 884 832 884H456C444.954 884 436 875.046 436 864V645Z" fill="url(#paint10_linear_13_103)" fill-opacity="0.5"/>
<rect x="518" y="713" width="251" height="29" rx="14.5" fill="#8E8E8E"/>
<rect x="553" y="752" width="182" height="29" rx="14.5" fill="#818080"/>
<rect x="610" y="791" width="67" height="29" rx="14.5" fill="#5E7EF3"/>
<path d="M436 620C436 608.954 444.954 600 456 600H832C843.046 600 852 608.954 852 620V645H436V620Z" fill="url(#paint11_linear_13_103)" fill-opacity="0.81"/>
<circle cx="464.5" cy="622.5" r="4.5" fill="#D9D9D9"/>
<circle cx="480.5" cy="622.5" r="4.5" fill="#D9D9D9"/>
<circle cx="496.5" cy="622.5" r="4.5" fill="#D9D9D9"/>
</g>
<g filter="url(#filter6_d_13_103)">
<path d="M868 45H1284V264C1284 275.046 1275.05 284 1264 284H888C876.954 284 868 275.046 868 264V45Z" fill="url(#paint12_linear_13_103)" fill-opacity="0.5"/>
<rect x="950" y="113" width="251" height="29" rx="14.5" fill="#8E8E8E"/>
<rect x="985" y="152" width="182" height="29" rx="14.5" fill="#818080"/>
<rect x="1042" y="191" width="67" height="29" rx="14.5" fill="#5E7EF3"/>
<path d="M868 20C868 8.9543 876.954 0 888 0H1264C1275.05 0 1284 8.95431 1284 20V45H868V20Z" fill="url(#paint13_linear_13_103)" fill-opacity="0.81"/>
<circle cx="896.5" cy="22.5" r="4.5" fill="#D9D9D9"/>
<circle cx="912.5" cy="22.5" r="4.5" fill="#D9D9D9"/>
<circle cx="928.5" cy="22.5" r="4.5" fill="#D9D9D9"/>
</g>
<g filter="url(#filter7_d_13_103)">
<path d="M868 345H1284V564C1284 575.046 1275.05 584 1264 584H888C876.954 584 868 575.046 868 564V345Z" fill="url(#paint14_linear_13_103)" fill-opacity="0.5"/>
<rect x="950" y="413" width="251" height="29" rx="14.5" fill="#8E8E8E"/>
<rect x="985" y="452" width="182" height="29" rx="14.5" fill="#818080"/>
<rect x="1042" y="491" width="67" height="29" rx="14.5" fill="#5E7EF3"/>
<path d="M868 320C868 308.954 876.954 300 888 300H1264C1275.05 300 1284 308.954 1284 320V345H868V320Z" fill="url(#paint15_linear_13_103)" fill-opacity="0.81"/>
<circle cx="896.5" cy="322.5" r="4.5" fill="#D9D9D9"/>
<circle cx="912.5" cy="322.5" r="4.5" fill="#D9D9D9"/>
<circle cx="928.5" cy="322.5" r="4.5" fill="#D9D9D9"/>
</g>
<g filter="url(#filter8_d_13_103)">
<path d="M868 645H1284V864C1284 875.046 1275.05 884 1264 884H888C876.954 884 868 875.046 868 864V645Z" fill="url(#paint16_linear_13_103)" fill-opacity="0.5"/>
<rect x="950" y="713" width="251" height="29" rx="14.5" fill="#8E8E8E"/>
<rect x="985" y="752" width="182" height="29" rx="14.5" fill="#818080"/>
<rect x="1042" y="791" width="67" height="29" rx="14.5" fill="#5E7EF3"/>
<path d="M868 620C868 608.954 876.954 600 888 600H1264C1275.05 600 1284 608.954 1284 620V645H868V620Z" fill="url(#paint17_linear_13_103)" fill-opacity="0.81"/>
<circle cx="896.5" cy="622.5" r="4.5" fill="#D9D9D9"/>
<circle cx="912.5" cy="622.5" r="4.5" fill="#D9D9D9"/>
<circle cx="928.5" cy="622.5" r="4.5" fill="#D9D9D9"/>
</g>
<defs>
<filter id="filter0_d_13_103" x="0" y="0" width="424" height="292" filterUnits="userSpaceOnUse" color-interpolation-filters="sRGB">
<feFlood flood-opacity="0" result="BackgroundImageFix"/>
<feColorMatrix in="SourceAlpha" type="matrix" values="0 0 0 0 0 0 0 0 0 0 0 0 0 0 0 0 0 0 127 0" result="hardAlpha"/>
<feOffset dy="4"/>
<feGaussianBlur stdDeviation="2"/>
<feComposite in2="hardAlpha" operator="out"/>
<feColorMatrix type="matrix" values="0 0 0 0 0 0 0 0 0 0 0 0 0 0 0 0 0 0 0.25 0"/>
<feBlend mode="normal" in2="BackgroundImageFix" result="effect1_dropShadow_13_103"/>
<feBlend mode="normal" in="SourceGraphic" in2="effect1_dropShadow_13_103" result="shape"/>
</filter>
<filter id="filter1_d_13_103" x="0" y="300" width="424" height="292" filterUnits="userSpaceOnUse" color-interpolation-filters="sRGB">
<feFlood flood-opacity="0" result="BackgroundImageFix"/>
<feColorMatrix in="SourceAlpha" type="matrix" values="0 0 0 0 0 0 0 0 0 0 0 0 0 0 0 0 0 0 127 0" result="hardAlpha"/>
<feOffset dy="4"/>
<feGaussianBlur stdDeviation="2"/>
<feComposite in2="hardAlpha" operator="out"/>
<feColorMatrix type="matrix" values="0 0 0 0 0 0 0 0 0 0 0 0 0 0 0 0 0 0 0.25 0"/>
<feBlend mode="normal" in2="BackgroundImageFix" result="effect1_dropShadow_13_103"/>
<feBlend mode="normal" in="SourceGraphic" in2="effect1_dropShadow_13_103" result="shape"/>
</filter>
<filter id="filter2_d_13_103" x="0" y="600" width="424" height="292" filterUnits="userSpaceOnUse" color-interpolation-filters="sRGB">
<feFlood flood-opacity="0" result="BackgroundImageFix"/>
<feColorMatrix in="SourceAlpha" type="matrix" values="0 0 0 0 0 0 0 0 0 0 0 0 0 0 0 0 0 0 127 0" result="hardAlpha"/>
<feOffset dy="4"/>
<feGaussianBlur stdDeviation="2"/>
<feComposite in2="hardAlpha" operator="out"/>
<feColorMatrix type="matrix" values="0 0 0 0 0 0 0 0 0 0 0 0 0 0 0 0 0 0 0.25 0"/>
<feBlend mode="normal" in2="BackgroundImageFix" result="effect1_dropShadow_13_103"/>
<feBlend mode="normal" in="SourceGraphic" in2="effect1_dropShadow_13_103" result="shape"/>
</filter>
<filter id="filter3_d_13_103" x="432" y="0" width="424" height="292" filterUnits="userSpaceOnUse" color-interpolation-filters="sRGB">
<feFlood flood-opacity="0" result="BackgroundImageFix"/>
<feColorMatrix in="SourceAlpha" type="matrix" values="0 0 0 0 0 0 0 0 0 0 0 0 0 0 0 0 0 0 127 0" result="hardAlpha"/>
<feOffset dy="4"/>
<feGaussianBlur stdDeviation="2"/>
<feComposite in2="hardAlpha" operator="out"/>
<feColorMatrix type="matrix" values="0 0 0 0 0 0 0 0 0 0 0 0 0 0 0 0 0 0 0.25 0"/>
<feBlend mode="normal" in2="BackgroundImageFix" result="effect1_dropShadow_13_103"/>
<feBlend mode="normal" in="SourceGraphic" in2="effect1_dropShadow_13_103" result="shape"/>
</filter>
<filter id="filter4_d_13_103" x="432" y="300" width="424" height="292" filterUnits="userSpaceOnUse" color-interpolation-filters="sRGB">
<feFlood flood-opacity="0" result="BackgroundImageFix"/>
<feColorMatrix in="SourceAlpha" type="matrix" values="0 0 0 0 0 0 0 0 0 0 0 0 0 0 0 0 0 0 127 0" result="hardAlpha"/>
<feOffset dy="4"/>
<feGaussianBlur stdDeviation="2"/>
<feComposite in2="hardAlpha" operator="out"/>
<feColorMatrix type="matrix" values="0 0 0 0 0 0 0 0 0 0 0 0 0 0 0 0 0 0 0.25 0"/>
<feBlend mode="normal" in2="BackgroundImageFix" result="effect1_dropShadow_13_103"/>
<feBlend mode="normal" in="SourceGraphic" in2="effect1_dropShadow_13_103" result="shape"/>
</filter>
<filter id="filter5_d_13_103" x="432" y="600" width="424" height="292" filterUnits="userSpaceOnUse" color-interpolation-filters="sRGB">
<feFlood flood-opacity="0" result="BackgroundImageFix"/>
<feColorMatrix in="SourceAlpha" type="matrix" values="0 0 0 0 0 0 0 0 0 0 0 0 0 0 0 0 0 0 127 0" result="hardAlpha"/>
<feOffset dy="4"/>
<feGaussianBlur stdDeviation="2"/>
<feComposite in2="hardAlpha" operator="out"/>
<feColorMatrix type="matrix" values="0 0 0 0 0 0 0 0 0 0 0 0 0 0 0 0 0 0 0.25 0"/>
<feBlend mode="normal" in2="BackgroundImageFix" result="effect1_dropShadow_13_103"/>
<feBlend mode="normal" in="SourceGraphic" in2="effect1_dropShadow_13_103" result="shape"/>
</filter>
<filter id="filter6_d_13_103" x="864" y="0" width="424" height="292" filterUnits="userSpaceOnUse" color-interpolation-filters="sRGB">
<feFlood flood-opacity="0" result="BackgroundImageFix"/>
<feColorMatrix in="SourceAlpha" type="matrix" values="0 0 0 0 0 0 0 0 0 0 0 0 0 0 0 0 0 0 127 0" result="hardAlpha"/>
<feOffset dy="4"/>
<feGaussianBlur stdDeviation="2"/>
<feComposite in2="hardAlpha" operator="out"/>
<feColorMatrix type="matrix" values="0 0 0 0 0 0 0 0 0 0 0 0 0 0 0 0 0 0 0.25 0"/>
<feBlend mode="normal" in2="BackgroundImageFix" result="effect1_dropShadow_13_103"/>
<feBlend mode="normal" in="SourceGraphic" in2="effect1_dropShadow_13_103" result="shape"/>
</filter>
<filter id="filter7_d_13_103" x="864" y="300" width="424" height="292" filterUnits="userSpaceOnUse" color-interpolation-filters="sRGB">
<feFlood flood-opacity="0" result="BackgroundImageFix"/>
<feColorMatrix in="SourceAlpha" type="matrix" values="0 0 0 0 0 0 0 0 0 0 0 0 0 0 0 0 0 0 127 0" result="hardAlpha"/>
<feOffset dy="4"/>
<feGaussianBlur stdDeviation="2"/>
<feComposite in2="hardAlpha" operator="out"/>
<feColorMatrix type="matrix" values="0 0 0 0 0 0 0 0 0 0 0 0 0 0 0 0 0 0 0.25 0"/>
<feBlend mode="normal" in2="BackgroundImageFix" result="effect1_dropShadow_13_103"/>
<feBlend mode="normal" in="SourceGraphic" in2="effect1_dropShadow_13_103" result="shape"/>
</filter>
<filter id="filter8_d_13_103" x="864" y="600" width="424" height="292" filterUnits="userSpaceOnUse" color-interpolation-filters="sRGB">
<feFlood flood-opacity="0" result="BackgroundImageFix"/>
<feColorMatrix in="SourceAlpha" type="matrix" values="0 0 0 0 0 0 0 0 0 0 0 0 0 0 0 0 0 0 127 0" result="hardAlpha"/>
<feOffset dy="4"/>
<feGaussianBlur stdDeviation="2"/>
<feComposite in2="hardAlpha" operator="out"/>
<feColorMatrix type="matrix" values="0 0 0 0 0 0 0 0 0 0 0 0 0 0 0 0 0 0 0.25 0"/>
<feBlend mode="normal" in2="BackgroundImageFix" result="effect1_dropShadow_13_103"/>
<feBlend mode="normal" in="SourceGraphic" in2="effect1_dropShadow_13_103" result="shape"/>
</filter>
<linearGradient id="paint0_linear_13_103" x1="13.5" y1="284" x2="413.5" y2="3.5" gradientUnits="userSpaceOnUse">
<stop stop-color="#686868"/>
<stop offset="1" stop-color="#7F7F7F"/>
</linearGradient>
<linearGradient id="paint1_linear_13_103" x1="4" y1="22.5" x2="420" y2="22.5" gradientUnits="userSpaceOnUse">
<stop stop-color="#8E8E8E"/>
<stop offset="1" stop-color="#929292"/>
</linearGradient>
<linearGradient id="paint2_linear_13_103" x1="13.5" y1="584" x2="413.5" y2="303.5" gradientUnits="userSpaceOnUse">
<stop stop-color="#686868"/>
<stop offset="1" stop-color="#7F7F7F"/>
</linearGradient>
<linearGradient id="paint3_linear_13_103" x1="4" y1="322.5" x2="420" y2="322.5" gradientUnits="userSpaceOnUse">
<stop stop-color="#8E8E8E"/>
<stop offset="1" stop-color="#929292"/>
</linearGradient>
<linearGradient id="paint4_linear_13_103" x1="13.5" y1="884" x2="413.5" y2="603.5" gradientUnits="userSpaceOnUse">
<stop stop-color="#686868"/>
<stop offset="1" stop-color="#7F7F7F"/>
</linearGradient>
<linearGradient id="paint5_linear_13_103" x1="4" y1="622.5" x2="420" y2="622.5" gradientUnits="userSpaceOnUse">
<stop stop-color="#8E8E8E"/>
<stop offset="1" stop-color="#929292"/>
</linearGradient>
<linearGradient id="paint6_linear_13_103" x1="445.5" y1="284" x2="845.5" y2="3.5" gradientUnits="userSpaceOnUse">
<stop stop-color="#686868"/>
<stop offset="1" stop-color="#7F7F7F"/>
</linearGradient>
<linearGradient id="paint7_linear_13_103" x1="436" y1="22.5" x2="852" y2="22.5" gradientUnits="userSpaceOnUse">
<stop stop-color="#8E8E8E"/>
<stop offset="1" stop-color="#929292"/>
</linearGradient>
<linearGradient id="paint8_linear_13_103" x1="445.5" y1="584" x2="845.5" y2="303.5" gradientUnits="userSpaceOnUse">
<stop stop-color="#686868"/>
<stop offset="1" stop-color="#7F7F7F"/>
</linearGradient>
<linearGradient id="paint9_linear_13_103" x1="436" y1="322.5" x2="852" y2="322.5" gradientUnits="userSpaceOnUse">
<stop stop-color="#8E8E8E"/>
<stop offset="1" stop-color="#929292"/>
</linearGradient>
<linearGradient id="paint10_linear_13_103" x1="445.5" y1="884" x2="845.5" y2="603.5" gradientUnits="userSpaceOnUse">
<stop stop-color="#686868"/>
<stop offset="1" stop-color="#7F7F7F"/>
</linearGradient>
<linearGradient id="paint11_linear_13_103" x1="436" y1="622.5" x2="852" y2="622.5" gradientUnits="userSpaceOnUse">
<stop stop-color="#8E8E8E"/>
<stop offset="1" stop-color="#929292"/>
</linearGradient>
<linearGradient id="paint12_linear_13_103" x1="877.5" y1="284" x2="1277.5" y2="3.5" gradientUnits="userSpaceOnUse">
<stop stop-color="#686868"/>
<stop offset="1" stop-color="#7F7F7F"/>
</linearGradient>
<linearGradient id="paint13_linear_13_103" x1="868" y1="22.5" x2="1284" y2="22.5" gradientUnits="userSpaceOnUse">
<stop stop-color="#8E8E8E"/>
<stop offset="1" stop-color="#929292"/>
</linearGradient>
<linearGradient id="paint14_linear_13_103" x1="877.5" y1="584" x2="1277.5" y2="303.5" gradientUnits="userSpaceOnUse">
<stop stop-color="#686868"/>
<stop offset="1" stop-color="#7F7F7F"/>
</linearGradient>
<linearGradient id="paint15_linear_13_103" x1="868" y1="322.5" x2="1284" y2="322.5" gradientUnits="userSpaceOnUse">
<stop stop-color="#8E8E8E"/>
<stop offset="1" stop-color="#929292"/>
</linearGradient>
<linearGradient id="paint16_linear_13_103" x1="877.5" y1="884" x2="1277.5" y2="603.5" gradientUnits="userSpaceOnUse">
<stop stop-color="#686868"/>
<stop offset="1" stop-color="#7F7F7F"/>
</linearGradient>
<linearGradient id="paint17_linear_13_103" x1="868" y1="622.5" x2="1284" y2="622.5" gradientUnits="userSpaceOnUse">
<stop stop-color="#8E8E8E"/>
<stop offset="1" stop-color="#929292"/>
</linearGradient>
</defs>
</svg>
