<svg width="81" height="80" viewBox="0 0 81 80" fill="none" xmlns="http://www.w3.org/2000/svg">
<path d="M78.8461 49.6511C73.5086 71.0665 51.8183 84.1436 30.3635 78.8028C8.94794 73.449 -4.1081 51.7586 1.22944 30.3431C6.56698 8.92759 28.2442 -4.14947 49.6467 1.19131C71.1146 6.46665 84.1706 28.2225 78.8461 49.6511Z" fill="#2775CA"/>
<path d="M16.7482 31.1664C11.9146 44 18.5814 58.5 31.5814 63.1664C32.0814 63.5 32.5814 64.1664 32.5814 64.6664V67C32.5814 67.3332 32.5814 67.5 32.4146 67.6664C32.2482 68.3332 31.5814 68.6664 30.9146 68.3332C21.5814 65.3332 14.4146 58.1664 11.4146 48.8332C6.41457 33 15.0814 16.1664 30.9146 11.1664C31.0814 11 31.4146 11 31.5814 11C32.2482 11.1664 32.5814 11.6664 32.5814 12.3332V14.6664C32.5814 15.5 32.2482 16 31.5814 16.3332C24.7482 18.8332 19.2482 24.1664 16.7482 31.1664Z" fill="white"/>
<path d="M47.7482 11.8332C47.9146 11.1664 48.5814 10.8332 49.2482 11.1664C58.4146 14.1664 65.7482 21.3332 68.7482 30.8332C73.7482 46.6664 65.0814 63.5 49.2482 68.5C49.0814 68.6664 48.7482 68.6664 48.5814 68.6664C47.9146 68.5 47.5814 68 47.5814 67.3332V65C47.5814 64.1664 47.9146 63.6664 48.5814 63.3332C55.4146 60.8332 60.9146 55.5 63.4146 48.5C68.2482 35.6664 61.5814 21.1664 48.5814 16.5C48.0814 16.1664 47.5814 15.5 47.5814 14.8332V12.5C47.5814 12.1664 47.5814 12 47.7482 11.8332Z" fill="white"/>
<path d="M40.5812 37.0001C47.5812 37.8333 51.0812 39.8333 51.0812 45.6665C51.0812 50.1665 47.7481 53.6665 42.7481 54.5001V58.5001C42.5812 59.3333 42.0812 59.8333 41.4144 59.8333H38.9144C38.0812 59.6665 37.5812 59.1665 37.5812 58.5001V54.5001C32.0812 53.6665 29.4144 50.6665 28.748 46.5001V46.3333C28.748 45.6665 29.248 45.1665 29.9144 45.1665H32.748C33.248 45.1665 33.748 45.5001 33.9144 46.1665C34.4144 48.6665 35.9144 50.5001 40.248 50.5001C43.4144 50.5001 45.7481 48.6669 45.7481 46.0001C45.7481 43.3333 44.248 42.3333 39.5812 41.5001C32.5812 40.6665 29.248 38.5001 29.248 33.0001C29.248 28.8333 32.4144 25.5001 37.4144 24.8333V21.0001C37.5812 20.1665 38.0812 19.6665 38.748 19.6665H41.248C42.0812 19.8333 42.5812 20.3333 42.5812 21.0001V25.0001C46.4144 25.3333 49.4144 28.1665 50.0812 31.8333V32.0001C50.0812 32.6665 49.5812 33.1665 48.9144 33.1665H46.2481C45.7481 33.1665 45.248 32.8333 45.0812 32.3333C44.248 29.8333 42.5812 28.8333 39.5812 28.8333C36.248 28.8333 34.5812 30.3329 34.5812 32.6665C34.5812 35.0001 35.5812 36.3333 40.5812 37.0001Z" fill="white"/>
</svg>
